# xmcd
#
# Track frame offsets: 
#        182
#        10837
#        25982
#        37015
#        52722
#        73807
#        84502
#        99685
#        110807
#        130635
#        143620
#        162850
#        176925
#        187082
#        197835
#        213642
#        223650
#        237857
#        247835
#        260447
#        272477
#        282467
#        299022
#        307045
#        317567
#
# Disc length: 4436 seconds
#
# Revision: 6
# Processed by: cddbd v1.5.2PL0 Copyright (c) Steve Scherf et al.
# Submitted via: ExactAudioCopyFreeDBPlugin 1.0
#
DISCID=7f115219
DTITLE=Various Artist - A Cajun Christmas
DYEAR=1995
DGENRE=Cajun
TTITLE0=Monty and Marscha Brown - Cajun Christmas
TTITLE1=Daigle and Elkins - Christmas in Cajun Land
TTITLE2=Johnny Allan - it's Christmas Time in Louisiana
TTITLE3=Jambalaya Cajun Band - Cette Veille De Christmas (This Christm
TTITLE3=as Eve)
TTITLE4=Michael Doucet - Bonne Annee
TTITLE5=Cajun Gold - White Christmas
TTITLE6=Belton Richard - Blue Christmas
TTITLE7=Daigle and Elkins - Rockin' Around the Christmas Tree
TTITLE8=Michael Doucet - Please Come Home for Christmas
TTITLE9=Michael Doucet - it Came Upon a Midnight Clear
TTITLE10=Clifton Chenier - it's Christmas Time
TTITLE11=Gary Walker and The Boogie Kings - Santa's Got a Brand New Bag
TTITLE12=Michael Doucet - Christmas Bajou
TTITLE13=Michael Doucet - Trinquez Trinquez
TTITLE14=Vin Bruce - Christmas On the Bajou
TTITLE15=Daigle and Elkins - Santa Claus is Coming to Town
TTITLE16=Belton Richard - You're All I Want for Christmas
TTITLE17=Harry Fontenot - Jingle Bells
TTITLE18=Camey Doucet - What Christmas Means to Me
TTITLE19=Jambalaya Cajun Band - Frosty the Snowman
TTITLE20=Jambalaya Cajun Band - Sur La Couverture (Up On the Housetop)
TTITLE21=Rockin' Sidney - Party This Christmas
TTITLE22=Michael Doucet - Deck the Halls
TTITLE23=Jambalaya Cajun Band - Rudolph the Red-Nosed Reindeer
TTITLE24=Michael Doucet - Auld Lang Syne
EXTD=
EXTT0=
EXTT1=
EXTT2=
EXTT3=
EXTT4=
EXTT5=
EXTT6=
EXTT7=
EXTT8=
EXTT9=
EXTT10=
EXTT11=
EXTT12=
EXTT13=
EXTT14=
EXTT15=
EXTT16=
EXTT17=
EXTT18=
EXTT19=
EXTT20=
EXTT21=
EXTT22=
EXTT23=
EXTT24=
PLAYORDER=
